<?xml version="1.0" encoding="UTF-8"?>
<!DOCTYPE svg  PUBLIC '-//W3C//DTD SVG 20010904//EN'  'http://www.w3.org/TR/2001/REC-SVG-20010904/DTD/svg10.dtd'>
<svg width="381pt" height="381pt" version="1.0" viewBox="0 0 381 381" xmlns="http://www.w3.org/2000/svg">
	<rect width="100%" height="100%" rx="50" ry="50" fill="#222"/>
	<g transform="translate(0 381) scale(.1 -.1)" fill="#fff">
		<path d="m2140 2223c-45-70-49-67 115-83 260-26 467-88 481-144 10-42-4-61-64-89-163-77-338-101-722-102-223 0-311 4-405 18-289 43-424 105-386 176 26 47 149 88 384 127 91 16 97 18 97 40 0 13-4 24-8 24-5 0-16 16-25 36-13 27-22 34-34 29-10-3-53-11-98-16-157-21-362-88-448-146-67-46-77-74-77-209 1-241 55-526 131-693 11-23 19-50 17-58-2-10-32-25-78-40-362-115-530-294-450-477 69-156 320-286 715-371 118-25 181-34 400-56 125-12 546-6 640 10 33 6 96 15 140 21 326 43 670 176 792 306 194 206 41 431-387 567-46 15-76 30-78 40-2 8 6 35 17 58 76 167 130 452 131 693 0 102-3 123-20 152-36 57-120 102-310 164-60 20-228 48-377 64l-63 7-30-48zm-989-1175c21-39 125-171 165-210 109-102 283-190 435-219 93-17 318-14 412 5 154 33 331 130 433 238 38 40 125 153 150 194 10 18 13 18 75 0 186-54 341-163 354-248 26-177-252-310-815-389-63-9-201-14-415-14-325 0-383 4-620 46-331 59-561 168-606 288-6 14-8 45-4 69 12 81 134 173 310 233 99 34 111 35 126 7z"/>
	</g>
	<g transform="translate(0 381) scale(.1 -.1)" fill="#feb542">
		<path d="m2255 3573c-11-116-75-220-184-303-18-14-46-35-61-47-15-13-32-23-36-24-5 0-43-27-84-60-41-32-95-74-120-91-75-55-158-138-181-181-52-99-67-135-80-187-16-64-17-249-1-300 19-64 62-174 70-180 4-3 17-19 27-36 27-43 85-105 122-132 64-45 246-104 231-74-59 115-61 122-53 205 7 85 21 121 70 176 58 65 91 93 195 161 291 192 391 277 438 373 58 117 74 183 68 268-8 99-29 160-82 234-43 61-56 75-150 152-41 34-166 113-179 113-1 0-6-30-10-67z"/>
		<path d="m1711 3559c1-7-5-40-15-71-19-62-64-118-186-232-63-60-179-175-206-207-8-9-28-54-45-100-28-76-31-92-26-170 2-51 11-97 20-115 9-16 22-40 29-54 15-29 36-50 66-68 22-12 22-11 22 55 0 78 11 129 43 193 21 42 57 103 75 125 4 6 36 45 70 87s102 113 151 157c84 77 89 85 101 139 21 102-11 200-86 262-13 12-15 12-13-1z"/>
	</g>
	<circle cx="306" cy="224" r="24" stroke="white" stroke-width="19" fill="transparent"/>
</svg>
